<svg id="visual" viewBox="0 0 900 600" width="900" height="600" xmlns="http://www.w3.org/2000/svg" xmlns:xlink="http://www.w3.org/1999/xlink" version="1.1"><rect x="0" y="0" width="900" height="600" fill="#6ABF8F"></rect><defs><linearGradient id="grad1_0" x1="33.3%" y1="0%" x2="100%" y2="100%"><stop offset="20%" stop-color="#6abf8f" stop-opacity="1"></stop><stop offset="80%" stop-color="#6abf8f" stop-opacity="1"></stop></linearGradient></defs><defs><linearGradient id="grad2_0" x1="0%" y1="0%" x2="66.7%" y2="100%"><stop offset="20%" stop-color="#6abf8f" stop-opacity="1"></stop><stop offset="80%" stop-color="#6abf8f" stop-opacity="1"></stop></linearGradient></defs><g transform="translate(900, 0)"><path d="M0 486.7C-71.7 488.1 -143.4 489.5 -186.3 449.7C-229.1 409.9 -243.1 328.8 -279.3 279.3C-315.5 229.8 -373.8 212 -412.1 170.7C-450.3 129.4 -468.5 64.7 -486.7 0L0 0Z" fill="#0C7E40"></path></g><g transform="translate(0, 600)"><path d="M0 -486.7C69.9 -486.3 139.8 -485.9 186.3 -449.7C232.8 -413.5 255.9 -341.5 292 -292C328.2 -242.6 377.4 -215.6 412.1 -170.7C446.7 -125.8 466.7 -62.9 486.7 0L0 0Z" fill="#0C7E40"></path></g></svg>