<svg id="visual" viewBox="0 0 900 600" width="900" height="600" xmlns="http://www.w3.org/2000/svg" xmlns:xlink="http://www.w3.org/1999/xlink" version="1.1"><rect x="0" y="0" width="900" height="600" fill="#b12b36"></rect><defs><linearGradient id="grad1_0" x1="33.3%" y1="0%" x2="100%" y2="100%"><stop offset="20%" stop-color="#b12b36" stop-opacity="1"></stop><stop offset="80%" stop-color="#b12b36" stop-opacity="1"></stop></linearGradient></defs><defs><linearGradient id="grad2_0" x1="0%" y1="0%" x2="66.7%" y2="100%"><stop offset="20%" stop-color="#b12b36" stop-opacity="1"></stop><stop offset="80%" stop-color="#b12b36" stop-opacity="1"></stop></linearGradient></defs><g transform="translate(900, 0)"><path d="M0 486.7C-40.2 448.5 -80.4 410.3 -130.1 400.4C-179.8 390.5 -239 409 -286.1 393.8C-333.2 378.6 -368.2 329.7 -386.7 281C-405.3 232.2 -407.4 183.7 -421.3 136.9C-435.3 90.1 -461 45 -486.7 0L0 0Z" fill="#752929"></path></g><g transform="translate(0, 600)"><path d="M0 -486.7C40.7 -449.3 81.4 -411.8 130.1 -400.4C178.8 -389 235.6 -403.5 282.7 -389.1C329.9 -374.7 367.4 -331.3 393.8 -286.1C420.1 -240.9 435.3 -193.8 448.9 -145.9C462.5 -97.9 474.6 -48.9 486.7 0L0 0Z" fill="#752929"></path></g></svg>