<svg id="visual" viewBox="0 0 900 600" width="900" height="600" xmlns="http://www.w3.org/2000/svg" xmlns:xlink="http://www.w3.org/1999/xlink" version="1.1"><rect x="0" y="0" width="900" height="600" fill="#007ea7"></rect><defs><linearGradient id="grad1_0" x1="33.3%" y1="0%" x2="100%" y2="100%"><stop offset="20%" stop-color="#007ea7" stop-opacity="1"></stop><stop offset="80%" stop-color="#007ea7" stop-opacity="1"></stop></linearGradient></defs><defs><linearGradient id="grad2_0" x1="0%" y1="0%" x2="66.7%" y2="100%"><stop offset="20%" stop-color="#007ea7" stop-opacity="1"></stop><stop offset="80%" stop-color="#007ea7" stop-opacity="1"></stop></linearGradient></defs><g transform="translate(900, 0)"><path d="M0 486.7C-45.2 465.2 -90.4 443.7 -140.3 431.8C-190.2 419.8 -244.8 417.4 -285.1 392.4C-325.3 367.4 -351.2 319.7 -381 276.8C-410.9 234 -444.7 195.8 -462.9 150.4C-481.2 105.1 -484 52.5 -486.7 0L0 0Z" fill="#003459"></path></g><g transform="translate(0, 600)"><path d="M0 -486.7C54.4 -487.1 108.9 -487.4 150.4 -462.9C191.9 -438.4 220.5 -389.2 258 -355.2C295.6 -321.2 342 -302.4 368.9 -268C395.8 -233.6 403 -183.6 419.4 -136.3C435.8 -89 461.3 -44.5 486.7 0L0 0Z" fill="#003459"></path></g></svg>