<svg id="visual" viewBox="0 0 900 600" width="900" height="600" xmlns="http://www.w3.org/2000/svg" xmlns:xlink="http://www.w3.org/1999/xlink" version="1.1"><rect x="0" y="0" width="900" height="600" fill="#0C7E40"></rect><defs><linearGradient id="grad1_0" x1="33.3%" y1="0%" x2="100%" y2="100%"><stop offset="20%" stop-color="#003459" stop-opacity="1"></stop><stop offset="80%" stop-color="#003459" stop-opacity="1"></stop></linearGradient></defs><defs><linearGradient id="grad1_1" x1="33.3%" y1="0%" x2="100%" y2="100%"><stop offset="20%" stop-color="#003459" stop-opacity="1"></stop><stop offset="80%" stop-color="#00496b" stop-opacity="1"></stop></linearGradient></defs><defs><linearGradient id="grad1_2" x1="33.3%" y1="0%" x2="100%" y2="100%"><stop offset="20%" stop-color="#005d6d" stop-opacity="1"></stop><stop offset="80%" stop-color="#00496b" stop-opacity="1"></stop></linearGradient></defs><defs><linearGradient id="grad1_3" x1="33.3%" y1="0%" x2="100%" y2="100%"><stop offset="20%" stop-color="#005d6d" stop-opacity="1"></stop><stop offset="80%" stop-color="#006f5c" stop-opacity="1"></stop></linearGradient></defs><defs><linearGradient id="grad1_4" x1="33.3%" y1="0%" x2="100%" y2="100%"><stop offset="20%" stop-color="#0c7e40" stop-opacity="1"></stop><stop offset="80%" stop-color="#006f5c" stop-opacity="1"></stop></linearGradient></defs><defs><linearGradient id="grad2_0" x1="0%" y1="0%" x2="66.7%" y2="100%"><stop offset="20%" stop-color="#003459" stop-opacity="1"></stop><stop offset="80%" stop-color="#003459" stop-opacity="1"></stop></linearGradient></defs><defs><linearGradient id="grad2_1" x1="0%" y1="0%" x2="66.7%" y2="100%"><stop offset="20%" stop-color="#00496b" stop-opacity="1"></stop><stop offset="80%" stop-color="#003459" stop-opacity="1"></stop></linearGradient></defs><defs><linearGradient id="grad2_2" x1="0%" y1="0%" x2="66.7%" y2="100%"><stop offset="20%" stop-color="#00496b" stop-opacity="1"></stop><stop offset="80%" stop-color="#005d6d" stop-opacity="1"></stop></linearGradient></defs><defs><linearGradient id="grad2_3" x1="0%" y1="0%" x2="66.7%" y2="100%"><stop offset="20%" stop-color="#006f5c" stop-opacity="1"></stop><stop offset="80%" stop-color="#005d6d" stop-opacity="1"></stop></linearGradient></defs><defs><linearGradient id="grad2_4" x1="0%" y1="0%" x2="66.7%" y2="100%"><stop offset="20%" stop-color="#006f5c" stop-opacity="1"></stop><stop offset="80%" stop-color="#0c7e40" stop-opacity="1"></stop></linearGradient></defs><g transform="translate(900, 0)"><path d="M0 486.7C-54.3 456.8 -108.7 426.8 -168.8 407.4C-228.8 388.1 -294.6 379.4 -344.2 344.2C-393.7 309 -427 247.4 -448.1 185.6C-469.1 123.8 -477.9 61.9 -486.7 0L0 0Z" fill="#00774f"></path><path d="M0 389.4C-43.5 365.4 -87 341.4 -135 325.9C-183.1 310.5 -235.7 303.5 -275.3 275.3C-315 247.2 -341.6 197.9 -358.5 148.5C-375.3 99.1 -382.4 49.5 -389.4 0L0 0Z" fill="#006666"></path><path d="M0 292C-32.6 274.1 -65.2 256.1 -101.3 244.5C-137.3 232.8 -176.8 227.6 -206.5 206.5C-236.2 185.4 -256.2 148.4 -268.8 111.4C-281.5 74.3 -286.8 37.1 -292 0L0 0Z" fill="#00536e"></path><path d="M0 194.7C-21.7 182.7 -43.5 170.7 -67.5 163C-91.5 155.2 -117.9 151.7 -137.7 137.7C-157.5 123.6 -170.8 98.9 -179.2 74.2C-187.7 49.5 -191.2 24.8 -194.7 0L0 0Z" fill="#003e64"></path><path d="M0 97.3C-10.9 91.4 -21.7 85.4 -33.8 81.5C-45.8 77.6 -58.9 75.9 -68.8 68.8C-78.7 61.8 -85.4 49.5 -89.6 37.1C-93.8 24.8 -95.6 12.4 -97.3 0L0 0Z" fill="#003459"></path></g><g transform="translate(0, 600)"><path d="M0 -486.7C64 -480.2 128 -473.6 186.3 -449.7C244.6 -425.8 297.2 -384.7 336.6 -336.6C376 -288.4 402.2 -233.3 425 -176C447.8 -118.8 467.3 -59.4 486.7 0L0 0Z" fill="#00774f"></path><path d="M0 -389.4C51.2 -384.1 102.4 -378.8 149 -359.8C195.7 -340.7 237.7 -307.8 269.3 -269.3C300.8 -230.8 321.7 -186.6 340 -140.8C358.2 -95 373.8 -47.5 389.4 0L0 0Z" fill="#006666"></path><path d="M0 -292C38.4 -288.1 76.8 -284.1 111.8 -269.8C146.7 -255.5 178.3 -230.8 201.9 -201.9C225.6 -173.1 241.3 -140 255 -105.6C268.7 -71.3 280.4 -35.6 292 0L0 0Z" fill="#00536e"></path><path d="M0 -194.7C25.6 -192.1 51.2 -189.4 74.5 -179.9C97.8 -170.3 118.9 -153.9 134.6 -134.6C150.4 -115.4 160.9 -93.3 170 -70.4C179.1 -47.5 186.9 -23.8 194.7 0L0 0Z" fill="#003e64"></path><path d="M0 -97.3C12.8 -96 25.6 -94.7 37.3 -89.9C48.9 -85.2 59.4 -76.9 67.3 -67.3C75.2 -57.7 80.4 -46.7 85 -35.2C89.6 -23.8 93.5 -11.9 97.3 0L0 0Z" fill="#003459"></path></g></svg>