<svg id="visual" viewBox="0 0 900 600" width="900" height="600" xmlns="http://www.w3.org/2000/svg" xmlns:xlink="http://www.w3.org/1999/xlink" version="1.1"><rect x="0" y="0" width="900" height="600" fill="#b38063"></rect><defs><linearGradient id="grad1_0" x1="33.3%" y1="0%" x2="100%" y2="100%"><stop offset="20%" stop-color="#98623f" stop-opacity="1"></stop><stop offset="80%" stop-color="#98623f" stop-opacity="1"></stop></linearGradient></defs><defs><linearGradient id="grad1_1" x1="33.3%" y1="0%" x2="100%" y2="100%"><stop offset="20%" stop-color="#98623f" stop-opacity="1"></stop><stop offset="80%" stop-color="#b38063" stop-opacity="1"></stop></linearGradient></defs><defs><linearGradient id="grad2_0" x1="0%" y1="0%" x2="66.7%" y2="100%"><stop offset="20%" stop-color="#98623f" stop-opacity="1"></stop><stop offset="80%" stop-color="#98623f" stop-opacity="1"></stop></linearGradient></defs><defs><linearGradient id="grad2_1" x1="0%" y1="0%" x2="66.7%" y2="100%"><stop offset="20%" stop-color="#b38063" stop-opacity="1"></stop><stop offset="80%" stop-color="#98623f" stop-opacity="1"></stop></linearGradient></defs><g transform="translate(900, 0)"><path d="M0 486.7C-63.1 478 -126.1 469.3 -185.2 447.2C-244.3 425.1 -299.4 389.6 -344.2 344.2C-388.9 298.8 -423.3 243.5 -445.3 184.5C-467.3 125.4 -477 62.7 -486.7 0L0 0Z" fill="#a67151"></path><path d="M0 243.4C-31.5 239 -63.1 234.6 -92.6 223.6C-122.2 212.5 -149.7 194.8 -172.1 172.1C-194.5 149.4 -211.6 121.7 -222.7 92.2C-233.7 62.7 -238.5 31.4 -243.4 0L0 0Z" fill="#98623f"></path></g><g transform="translate(0, 600)"><path d="M0 -486.7C63.5 -480.7 127 -474.6 186.3 -449.7C245.5 -424.8 300.5 -381.1 328.1 -328.1C355.7 -275.1 356 -212.8 377.9 -156.5C399.8 -100.3 443.2 -50.1 486.7 0L0 0Z" fill="#a67151"></path><path d="M0 -243.4C31.8 -240.3 63.5 -237.3 93.1 -224.8C122.8 -212.4 150.2 -190.6 164 -164C177.9 -137.5 178 -106.4 188.9 -78.3C199.9 -50.1 221.6 -25.1 243.4 0L0 0Z" fill="#98623f"></path></g></svg>